<?xml version="1.0" encoding="UTF-8"?>
<svg width="256px" height="256px" viewBox="0 0 256 256" version="1.1" xmlns="http://www.w3.org/2000/svg" xmlns:xlink="http://www.w3.org/1999/xlink">
    <title>Artboard</title>
    <g id="Artboard" stroke="none" stroke-width="1" fill="none" fill-rule="evenodd">
        <g id="Group-7" transform="translate(10.000000, 6.000000)" fill-rule="nonzero">
            <g id="Group-4" transform="translate(69.959291, 0.000000)" fill="#75AED9" opacity="0.653320312">
                <path d="M88.0947886,35.0383899 C88.0947886,4.77796226 83.0871431,0 58.4285567,0 L27.4198852,0 C13.8974346,0 8.52822629,5.97245283 8.52822629,21.3017484 C8.52822629,25.2833836 9.7213837,27.2742013 12.5054176,27.2742013 C15.8860303,27.2742013 16.8803281,25.2833836 16.8803281,21.3017484 C16.8803281,12.1439874 19.6643621,8.36143396 28.8119022,8.36143396 L58.4285567,8.36143396 C80.5019687,8.36143396 79.7426867,10.5513333 79.7426867,35.0383899 C79.7426867,66.8914717 0,67.488717 0,117.856403 L0,126.616 L87.0920882,126.616 C91.0692796,126.616 93.0578753,125.421509 93.0578753,122.634365 C93.0578753,119.249975 91.0692796,118.254566 87.0920882,118.254566 L8.35210185,118.254566 C8.35210185,73.2620881 88.0947886,70.4749434 88.0947886,35.0383899 Z" id="Path"></path>
                <path d="M92.4138106,35.0383899 C92.4138106,4.77796226 87.4061651,0 62.7475787,0 L31.7389072,0 C18.2164566,0 12.8472483,5.97245283 12.8472483,21.3017484 C12.8472483,25.2833836 14.0404057,27.2742013 16.8244396,27.2742013 C20.2050523,27.2742013 21.1993501,25.2833836 21.1993501,21.3017484 C21.1993501,12.1439874 23.9833841,8.36143396 33.1309242,8.36143396 L62.7475787,8.36143396 C84.8209907,8.36143396 84.0617087,10.5513333 84.0617087,35.0383899 C84.0617087,66.8914717 4.319022,67.488717 4.319022,117.856403 L4.319022,126.616 L91.4111102,126.616 C95.3883016,126.616 97.3768973,125.421509 97.3768973,122.634365 C97.3768973,119.249975 95.3883016,118.254566 91.4111102,118.254566 L12.6711239,118.254566 C12.6711239,73.2620881 92.4138106,70.4749434 92.4138106,35.0383899 Z" id="Path-Copy" transform="translate(50.847960, 63.308000) scale(-1, 1) translate(-50.847960, -63.308000) "></path>
            </g>
            <g id="Gravity-Sensation" transform="translate(0.000000, 148.782032)">
                <path d="M53.0289521,42.317968 L46.4381245,42.317968 C43.8179178,42.317968 41.7519857,41.5533067 40.240328,40.023984 C38.7286703,38.4946613 37.9728414,36.401904 37.9728414,33.745712 L37.9728414,12.0736 C37.9728414,9.417408 38.7286703,7.32465067 40.240328,5.795328 C41.7519857,4.26600533 43.8179178,3.501344 46.4381245,3.501344 L53.0289521,3.501344 C55.6491588,3.501344 57.7251687,4.26600533 59.2569818,5.795328 C60.7887949,7.32465067 61.5547015,9.417408 61.5547015,12.0736 L61.5547015,14.79016 C61.5547015,15.273104 61.3329917,15.514576 60.8895721,15.514576 L59.1360492,15.514576 C58.6926296,15.514576 58.4709198,15.273104 58.4709198,14.79016 L58.4709198,12.194336 C58.4709198,10.26256 57.9871893,8.783544 57.0197284,7.757288 C56.0522675,6.731032 54.641387,6.217904 52.7870869,6.217904 L46.6799898,6.217904 C44.8256896,6.217904 43.4148091,6.74109333 42.4473482,7.787472 C41.4798873,8.83385067 40.9961568,10.3028053 40.9961568,12.194336 L40.9961568,33.624976 C40.9961568,35.5165067 41.4798873,36.9854613 42.4473482,38.03184 C43.4148091,39.0782187 44.8256896,39.601408 46.6799898,39.601408 L52.7870869,39.601408 C54.641387,39.601408 56.0522675,39.08828 57.0197284,38.062024 C57.9871893,37.035768 58.4709198,35.556752 58.4709198,33.624976 L58.4709198,25.6564 C58.4709198,25.294192 58.2895209,25.113088 57.926723,25.113088 L50.9730976,25.113088 C50.529678,25.113088 50.3079682,24.8917387 50.3079682,24.44904 L50.3079682,23.060576 C50.3079682,22.6178773 50.529678,22.396528 50.9730976,22.396528 L60.4058417,22.396528 C61.1717482,22.396528 61.5547015,22.7989813 61.5547015,23.603888 L61.5547015,33.745712 C61.5547015,36.401904 60.7887949,38.4946613 59.2569818,40.023984 C57.7251687,41.5533067 55.6491588,42.317968 53.0289521,42.317968 Z" id="Path" fill="#FFFFFF"></path>
                <path d="M72.9223674,42.317968 L71.1688445,42.317968 C70.7657358,42.317968 70.5641814,42.076496 70.5641814,41.593552 L70.5641814,12.254704 C70.5641814,11.77176 70.7657358,11.530288 71.1688445,11.530288 L72.9223674,11.530288 C73.365787,11.530288 73.5874968,11.77176 73.5874968,12.254704 L73.5874968,14.79016 L73.829362,14.79016 C74.2727816,13.945008 75.0588436,13.190408 76.187548,12.52636 C77.3162525,11.862312 78.7069775,11.530288 80.3597233,11.530288 L82.7179093,11.530288 C83.1613289,11.530288 83.3830387,11.7516373 83.3830387,12.194336 L83.3830387,13.643168 C83.3830387,14.0858667 83.1613289,14.2870933 82.7179093,14.246848 L79.8759928,14.246848 C77.9007601,14.246848 76.3588692,14.850528 75.2503203,16.057888 C74.1417713,17.265248 73.5874968,18.895184 73.5874968,20.947696 L73.5874968,41.593552 C73.5874968,42.076496 73.365787,42.317968 72.9223674,42.317968 Z" id="Path" fill="#FFFFFF"></path>
                <path d="M101.2206,42.317968 L97.3507558,42.317968 C94.7305492,42.317968 92.664617,41.5533067 91.1529593,40.023984 C89.6413016,38.4946613 88.8854727,36.401904 88.8854727,33.745712 L88.8854727,20.102544 C88.8854727,17.446352 89.6413016,15.3535947 91.1529593,13.824272 C92.664617,12.2949493 94.7305492,11.530288 97.3507558,11.530288 L110.169613,11.530288 C110.572722,11.530288 110.774276,11.77176 110.774276,12.254704 L110.774276,41.593552 C110.774276,42.076496 110.572722,42.317968 110.169613,42.317968 L108.41609,42.317968 C107.972671,42.317968 107.750961,42.076496 107.750961,41.593552 L107.750961,39.178832 L107.509096,39.178832 C106.461013,41.2715893 104.364848,42.317968 101.2206,42.317968 Z M107.750961,33.685344 L107.750961,14.79016 C107.750961,14.427952 107.549406,14.246848 107.146298,14.246848 L97.5926211,14.246848 C95.7383209,14.246848 94.3274404,14.7700373 93.3599795,15.816416 C92.3925186,16.8627947 91.9087881,18.3317493 91.9087881,20.22328 L91.9087881,33.624976 C91.9087881,35.5165067 92.3925186,36.9854613 93.3599795,38.03184 C94.3274404,39.0782187 95.7383209,39.601408 97.5926211,39.601408 L101.522931,39.601408 C103.457853,39.601408 104.979588,39.08828 106.088137,38.062024 C107.196686,37.035768 107.750961,35.5768747 107.750961,33.685344 Z" id="Shape" fill="#FFFFFF"></path>
                <path d="M117.002306,11.530288 L118.876761,11.530288 C119.27987,11.530288 119.541891,11.77176 119.662823,12.254704 L127.765309,38.93736 L128.007174,38.93736 L136.049193,12.254704 C136.210436,11.77176 136.472457,11.530288 136.835255,11.530288 L138.770177,11.530288 C139.213596,11.530288 139.354684,11.77176 139.193441,12.254704 L130.063028,41.593552 C129.942096,42.076496 129.65992,42.317968 129.2165,42.317968 L126.555983,42.317968 C126.112563,42.317968 125.810231,42.076496 125.648988,41.593552 L116.518575,12.254704 C116.397643,11.77176 116.558886,11.530288 117.002306,11.530288 Z" id="Path" fill="#FFFFFF"></path>
                <path d="M145.300538,6.459376 L145.300538,0.664048 C145.300538,0.221349333 145.502092,0 145.905201,0 L147.71919,0 C148.122299,0 148.323853,0.221349333 148.323853,0.664048 L148.323853,6.459376 C148.323853,6.94232 148.122299,7.183792 147.71919,7.183792 L145.905201,7.183792 C145.502092,7.183792 145.300538,6.94232 145.300538,6.459376 Z M145.300538,41.593552 L145.300538,12.254704 C145.300538,11.77176 145.502092,11.530288 145.905201,11.530288 L147.658724,11.530288 C148.102144,11.530288 148.323853,11.77176 148.323853,12.254704 L148.323853,41.593552 C148.323853,42.076496 148.122299,42.317968 147.71919,42.317968 L145.905201,42.317968 C145.502092,42.317968 145.300538,42.076496 145.300538,41.593552 Z" id="Shape" fill="#FFFFFF"></path>
                <path d="M159.02639,14.246848 L155.337945,14.246848 C154.894526,14.246848 154.672816,14.0456213 154.672816,13.643168 L154.672816,12.194336 C154.672816,11.7516373 154.894526,11.530288 155.337945,11.530288 L159.02639,11.530288 C159.389188,11.530288 159.570587,11.349184 159.570587,10.986976 L159.570587,6.097168 C159.570587,5.614224 159.792297,5.372752 160.235716,5.372752 L161.989239,5.372752 C162.432659,5.372752 162.654368,5.614224 162.654368,6.097168 L162.654368,10.986976 C162.654368,11.349184 162.835767,11.530288 163.198565,11.530288 L170.394056,11.530288 C170.837475,11.530288 171.059185,11.7516373 171.059185,12.194336 L171.059185,13.643168 C171.059185,14.0456213 170.837475,14.246848 170.394056,14.246848 L163.198565,14.246848 C162.835767,14.246848 162.654368,14.427952 162.654368,14.79016 L162.654368,33.80608 C162.654368,35.6573653 163.17841,37.0860747 164.226492,38.092208 C165.274575,39.0983413 166.745922,39.601408 168.640533,39.601408 L170.998719,39.601408 C171.442139,39.601408 171.663848,39.8227573 171.663848,40.265456 L171.663848,41.65392 C171.663848,42.0966187 171.442139,42.317968 170.998719,42.317968 L168.398668,42.317968 C165.73815,42.317968 163.601674,41.5734293 161.989239,40.084352 C160.376804,38.5952747 159.570587,36.5427627 159.570587,33.926816 L159.570587,14.79016 C159.570587,14.427952 159.389188,14.246848 159.02639,14.246848 Z" id="Path" fill="#FFFFFF"></path>
                <path d="M180.129131,51.493904 L177.891878,51.493904 C177.448458,51.493904 177.226749,51.2725547 177.226749,50.829856 L177.226749,49.381024 C177.226749,48.9383253 177.448458,48.716976 177.891878,48.716976 L179.524468,48.716976 C180.733795,48.716976 181.761722,48.5459333 182.60825,48.203848 C183.454778,47.8617627 184.20053,47.2278987 184.845503,46.302256 C185.490477,45.3766133 185.913742,44.6521973 186.115296,44.129008 C186.679648,42.8814027 187.143223,41.7344107 187.506021,40.688032 L186.357161,40.688032 C185.913742,40.688032 185.631565,40.44656 185.510633,39.963616 L175.89649,12.254704 C175.735246,11.77176 175.89649,11.530288 176.38022,11.530288 L178.254676,11.530288 C178.657785,11.530288 178.919805,11.77176 179.040738,12.254704 L187.929285,38.152576 L188.17115,38.152576 L197.059698,12.254704 C197.18063,11.77176 197.442651,11.530288 197.84576,11.530288 L199.659749,11.530288 C200.143479,11.530288 200.324878,11.77176 200.203946,12.254704 C192.9883,33.3432587 189.229311,44.249744 188.926979,44.97416 C188.624648,45.698576 188.070373,46.6845867 187.264156,47.932192 C185.732343,50.3066667 183.354001,51.493904 180.129131,51.493904 Z" id="Path" fill="#FFFFFF"></path>
                <path d="M0,87.645712 L0,85.472464 C0,85.0297653 0.221709796,84.808416 0.665129388,84.808416 L2.41865232,84.808416 C2.86207191,84.808416 3.08378171,85.0297653 3.08378171,85.472464 L3.08378171,87.464608 C3.08378171,91.4891413 5.038859,93.501408 8.94901358,93.501408 L15.2375096,93.501408 C19.1476642,93.501408 21.1027415,91.4690187 21.1027415,87.40424 L21.1027415,84.868784 C21.1027415,83.0979893 20.3771458,81.7095253 18.9259544,80.703392 C17.474763,79.6972587 15.7212401,78.9728427 13.6653856,78.530144 C11.6095311,78.0874453 9.54359894,77.624624 7.46758903,77.14168 C5.39157913,76.658736 3.62797848,75.7733387 2.17678709,74.485488 C0.725595696,73.1976373 0,71.467088 0,69.29384 L0,65.9736 C0,63.317408 0.765906568,61.2246507 2.2977197,59.695328 C3.82953284,58.1660053 5.90554274,57.401344 8.52574942,57.401344 L15.5398411,57.401344 C18.1600478,57.401344 20.2360577,58.1660053 21.7678709,59.695328 C23.299684,61.2246507 24.0655906,63.317408 24.0655906,65.9736 L24.0655906,67.663904 C24.0655906,68.1066027 23.8438808,68.327952 23.4004612,68.327952 L21.6469383,68.327952 C21.2035187,68.327952 20.9818089,68.1066027 20.9818089,67.663904 L20.9818089,66.154704 C20.9818089,62.1301707 19.0267316,60.117904 15.116577,60.117904 L8.88854727,60.117904 C5.01870356,60.117904 3.08378171,62.170416 3.08378171,66.27544 L3.08378171,69.29384 C3.08378171,72.070768 5.56290033,73.942176 10.5211376,74.908064 C12.5769921,75.3105173 14.6429242,75.7733387 16.7189342,76.296528 C18.7949441,76.8197173 20.5585447,77.7654827 22.0097361,79.133824 C23.4609275,80.5021653 24.1865232,82.3534507 24.1865232,84.68768 L24.1865232,87.645712 C24.1865232,90.301904 23.4206166,92.3946613 21.8888035,93.923984 C20.3569903,95.4533067 18.2809804,96.217968 15.6607738,96.217968 L8.52574942,96.217968 C5.90554274,96.217968 3.82953284,95.4533067 2.2977197,93.923984 C0.765906568,92.3946613 0,90.301904 0,87.645712 Z" id="Path" fill="#669CC4"></path>
                <path d="M54.1173456,96.217968 L41.4798873,96.217968 C38.8596806,96.217968 36.7937484,95.4533067 35.2820907,93.923984 C33.770433,92.3946613 33.0146042,90.301904 33.0146042,87.645712 L33.0146042,74.002544 C33.0146042,71.346352 33.770433,69.2535947 35.2820907,67.724272 C36.7937484,66.1949493 38.8596806,65.430288 41.4798873,65.430288 L46.6799898,65.430288 C49.3001964,65.430288 51.3762063,66.1949493 52.9080195,67.724272 C54.4398326,69.2535947 55.2057392,71.346352 55.2057392,74.002544 L55.2057392,81.66928 C55.2057392,82.152224 54.9638739,82.393696 54.4801435,82.393696 L36.5821163,82.393696 C36.2193185,82.393696 36.0379195,82.5748 36.0379195,82.937008 L36.0379195,87.585344 C36.0379195,89.4768747 36.52165,90.935768 37.4891109,91.962024 C38.4565719,92.98828 39.8674524,93.501408 41.7217525,93.501408 L54.1173456,93.501408 C54.5607652,93.501408 54.782475,93.7227573 54.782475,94.165456 L54.782475,95.55392 C54.782475,95.9966187 54.5607652,96.217968 54.1173456,96.217968 Z M36.5821163,79.978976 L51.638227,79.978976 C52.0010249,79.978976 52.1824238,79.797872 52.1824238,79.435664 L52.1824238,74.062912 C52.1824238,72.1713813 51.6986933,70.712488 50.7312324,69.686232 C49.7637715,68.659976 48.3528909,68.146848 46.4985908,68.146848 L41.7217525,68.146848 C39.8674524,68.146848 38.4565719,68.659976 37.4891109,69.686232 C36.52165,70.712488 36.0379195,72.1713813 36.0379195,74.062912 L36.0379195,79.435664 C36.0379195,79.797872 36.2193185,79.978976 36.5821163,79.978976 Z" id="Shape" fill="#669CC4"></path>
                <path d="M65.7268768,96.217968 L63.9733538,96.217968 C63.5702451,96.217968 63.3686908,95.976496 63.3686908,95.493552 L63.3686908,66.154704 C63.3686908,65.67176 63.5702451,65.430288 63.9733538,65.430288 L65.7268768,65.430288 C66.1702964,65.430288 66.3920061,65.67176 66.3920061,66.154704 L66.3920061,68.569424 L66.6338714,68.569424 C67.7625758,66.4766667 69.8587411,65.430288 72.9223674,65.430288 L76.9131437,65.430288 C79.4930395,65.430288 81.5287386,66.1949493 83.0202408,67.724272 C84.5117431,69.2535947 85.2574942,71.346352 85.2574942,74.002544 L85.2574942,95.493552 C85.2574942,95.976496 85.0559399,96.217968 84.6528312,96.217968 L82.8993082,96.217968 C82.4558886,96.217968 82.2341788,95.976496 82.2341788,95.493552 L82.2341788,74.12328 C82.2341788,72.2317493 81.7504484,70.7627947 80.7829874,69.716416 C79.8155265,68.6700373 78.404646,68.146848 76.5503459,68.146848 L72.6200359,68.146848 C70.685114,68.146848 69.1633786,68.659976 68.0548296,69.686232 C66.9462806,70.712488 66.3920061,72.1713813 66.3920061,74.062912 L66.3920061,95.493552 C66.3920061,95.976496 66.1702964,96.217968 65.7268768,96.217968 Z" id="Path" fill="#669CC4"></path>
                <path d="M104.00205,96.217968 L93.4809121,96.217968 C93.0374925,96.217968 92.8157827,95.9966187 92.8157827,95.55392 L92.8157827,94.165456 C92.8157827,93.7630027 93.0374925,93.561776 93.4809121,93.561776 L103.699718,93.561776 C107.327697,93.561776 109.141686,92.1531893 109.141686,89.336016 L109.141686,87.887184 C109.141686,85.2712373 108.012981,83.5608107 105.755573,82.755904 L98.1972841,79.85824 C96.1414297,79.0533333 94.6801606,78.107568 93.8134768,77.020944 C92.9467931,75.93432 92.5134512,74.42512 92.5134512,72.493344 C92.5134512,67.78464 95.1135024,65.430288 100.313605,65.430288 L110.109147,65.430288 C110.552566,65.430288 110.774276,65.6516373 110.774276,66.094336 L110.774276,67.4828 C110.774276,67.8852533 110.552566,68.08648 110.109147,68.08648 L100.615936,68.08648 C98.9631907,68.08648 97.7236314,68.448688 96.8972585,69.173104 C96.0708856,69.89752 95.6576992,70.742672 95.6576992,71.70856 L95.6576992,73.097024 C95.6576992,74.2238933 95.9701085,75.1092907 96.594927,75.753216 C97.2197455,76.3971413 98.1771287,76.9404533 99.4670766,77.383152 L107.025365,80.401552 C109.12153,81.0857227 110.522333,82.1019173 111.227774,83.450136 C111.933214,84.7983547 112.285934,86.679824 112.285934,89.094544 C112.285934,91.509264 111.610727,93.3001813 110.260313,94.467296 C108.909898,95.6344107 106.823811,96.217968 104.00205,96.217968 Z" id="Path" fill="#669CC4"></path>
                <path d="M131.816551,96.217968 L127.946708,96.217968 C125.326501,96.217968 123.260569,95.4533067 121.748911,93.923984 C120.237253,92.3946613 119.481425,90.301904 119.481425,87.645712 L119.481425,74.002544 C119.481425,71.346352 120.237253,69.2535947 121.748911,67.724272 C123.260569,66.1949493 125.326501,65.430288 127.946708,65.430288 L140.765565,65.430288 C141.168674,65.430288 141.370228,65.67176 141.370228,66.154704 L141.370228,95.493552 C141.370228,95.976496 141.168674,96.217968 140.765565,96.217968 L139.012042,96.217968 C138.568622,96.217968 138.346913,95.976496 138.346913,95.493552 L138.346913,93.078832 L138.105047,93.078832 C137.056965,95.1715893 134.960799,96.217968 131.816551,96.217968 Z M138.346913,87.585344 L138.346913,68.69016 C138.346913,68.327952 138.145358,68.146848 137.74225,68.146848 L128.188573,68.146848 C126.334273,68.146848 124.923392,68.6700373 123.955931,69.716416 C122.98847,70.7627947 122.50474,72.2317493 122.50474,74.12328 L122.50474,87.524976 C122.50474,89.4165067 122.98847,90.8854613 123.955931,91.93184 C124.923392,92.9782187 126.334273,93.501408 128.188573,93.501408 L132.118883,93.501408 C134.053805,93.501408 135.57554,92.98828 136.684089,91.962024 C137.792638,90.935768 138.346913,89.4768747 138.346913,87.585344 Z" id="Shape" fill="#669CC4"></path>
                <path d="M151.770433,68.146848 L148.081988,68.146848 C147.638569,68.146848 147.416859,67.9456213 147.416859,67.543168 L147.416859,66.094336 C147.416859,65.6516373 147.638569,65.430288 148.081988,65.430288 L151.770433,65.430288 C152.133231,65.430288 152.31463,65.249184 152.31463,64.886976 L152.31463,59.997168 C152.31463,59.514224 152.53634,59.272752 152.979759,59.272752 L154.733282,59.272752 C155.176702,59.272752 155.398411,59.514224 155.398411,59.997168 L155.398411,64.886976 C155.398411,65.249184 155.57981,65.430288 155.942608,65.430288 L163.138099,65.430288 C163.581518,65.430288 163.803228,65.6516373 163.803228,66.094336 L163.803228,67.543168 C163.803228,67.9456213 163.581518,68.146848 163.138099,68.146848 L155.942608,68.146848 C155.57981,68.146848 155.398411,68.327952 155.398411,68.69016 L155.398411,87.70608 C155.398411,89.5573653 155.922453,90.9860747 156.970535,91.992208 C158.018618,92.9983413 159.489965,93.501408 161.384576,93.501408 L163.742762,93.501408 C164.186182,93.501408 164.407891,93.7227573 164.407891,94.165456 L164.407891,95.55392 C164.407891,95.9966187 164.186182,96.217968 163.742762,96.217968 L161.142711,96.217968 C158.482193,96.217968 156.345717,95.4734293 154.733282,93.984352 C153.120847,92.4952747 152.31463,90.4427627 152.31463,87.826816 L152.31463,68.69016 C152.31463,68.327952 152.133231,68.146848 151.770433,68.146848 Z" id="Path" fill="#669CC4"></path>
                <path d="M171.724315,60.359376 L171.724315,54.564048 C171.724315,54.1213493 171.925869,53.9 172.328978,53.9 L174.142967,53.9 C174.546076,53.9 174.74763,54.1213493 174.74763,54.564048 L174.74763,60.359376 C174.74763,60.84232 174.546076,61.083792 174.142967,61.083792 L172.328978,61.083792 C171.925869,61.083792 171.724315,60.84232 171.724315,60.359376 Z M171.724315,95.493552 L171.724315,66.154704 C171.724315,65.67176 171.925869,65.430288 172.328978,65.430288 L174.082501,65.430288 C174.52592,65.430288 174.74763,65.67176 174.74763,66.154704 L174.74763,95.493552 C174.74763,95.976496 174.546076,96.217968 174.142967,96.217968 L172.328978,96.217968 C171.925869,96.217968 171.724315,95.976496 171.724315,95.493552 Z" id="Shape" fill="#669CC4"></path>
                <path d="M197.18063,96.217968 L191.980528,96.217968 C189.360321,96.217968 187.294389,95.4533067 185.782731,93.923984 C184.271074,92.3946613 183.515245,90.301904 183.515245,87.645712 L183.515245,74.002544 C183.515245,71.346352 184.271074,69.2535947 185.782731,67.724272 C187.294389,66.1949493 189.360321,65.430288 191.980528,65.430288 L197.18063,65.430288 C199.800837,65.430288 201.876847,66.1949493 203.40866,67.724272 C204.940473,69.2535947 205.70638,71.346352 205.70638,74.002544 L205.70638,87.645712 C205.70638,90.301904 204.940473,92.3946613 203.40866,93.923984 C201.876847,95.4533067 199.800837,96.217968 197.18063,96.217968 Z M192.222393,93.501408 L196.938765,93.501408 C198.793065,93.501408 200.214023,92.98828 201.20164,91.962024 C202.189256,90.935768 202.683064,89.4768747 202.683064,87.585344 L202.683064,74.062912 C202.683064,72.1713813 202.189256,70.712488 201.20164,69.686232 C200.214023,68.659976 198.793065,68.146848 196.938765,68.146848 L192.222393,68.146848 C190.368093,68.146848 188.957212,68.659976 187.989751,69.686232 C187.022291,70.712488 186.53856,72.1713813 186.53856,74.062912 L186.53856,87.585344 C186.53856,89.4768747 187.022291,90.935768 187.989751,91.962024 C188.957212,92.98828 190.368093,93.501408 192.222393,93.501408 Z" id="Shape" fill="#669CC4"></path>
                <path d="M216.469383,96.217968 L214.71586,96.217968 C214.312751,96.217968 214.111197,95.976496 214.111197,95.493552 L214.111197,66.154704 C214.111197,65.67176 214.312751,65.430288 214.71586,65.430288 L216.469383,65.430288 C216.912802,65.430288 217.134512,65.67176 217.134512,66.154704 L217.134512,68.569424 L217.376377,68.569424 C218.505082,66.4766667 220.601247,65.430288 223.664873,65.430288 L227.65565,65.430288 C230.235545,65.430288 232.271244,66.1949493 233.762747,67.724272 C235.254249,69.2535947 236,71.346352 236,74.002544 L236,95.493552 C236,95.976496 235.798446,96.217968 235.395337,96.217968 L233.641814,96.217968 C233.198394,96.217968 232.976685,95.976496 232.976685,95.493552 L232.976685,74.12328 C232.976685,72.2317493 232.492954,70.7627947 231.525493,69.716416 C230.558032,68.6700373 229.147152,68.146848 227.292852,68.146848 L223.362542,68.146848 C221.42762,68.146848 219.905884,68.659976 218.797335,69.686232 C217.688786,70.712488 217.134512,72.1713813 217.134512,74.062912 L217.134512,95.493552 C217.134512,95.976496 216.912802,96.217968 216.469383,96.217968 Z" id="Path" fill="#669CC4"></path>
            </g>
        </g>
    </g>
</svg>