<?xml version="1.0" encoding="UTF-8"?>
<svg width="380px" height="140px" viewBox="0 0 380 140" version="1.1" xmlns="http://www.w3.org/2000/svg" xmlns:xlink="http://www.w3.org/1999/xlink">
    <title>Artboard Copy 2</title>
    <g id="Artboard-Copy-2" stroke="none" stroke-width="1" fill="none" fill-rule="evenodd">
        <g id="Group-7" transform="translate(6.959291, 6.000000)" fill-rule="nonzero">
            <g id="Group-4" fill="#75AED9" opacity="0.653320312">
                <path d="M88.0947886,35.0383899 C88.0947886,4.77796226 83.0871431,0 58.4285567,0 L27.4198852,0 C13.8974346,0 8.52822629,5.97245283 8.52822629,21.3017484 C8.52822629,25.2833836 9.7213837,27.2742013 12.5054176,27.2742013 C15.8860303,27.2742013 16.8803281,25.2833836 16.8803281,21.3017484 C16.8803281,12.1439874 19.6643621,8.36143396 28.8119022,8.36143396 L58.4285567,8.36143396 C80.5019687,8.36143396 79.7426867,10.5513333 79.7426867,35.0383899 C79.7426867,66.8914717 0,67.488717 0,117.856403 L0,126.616 L87.0920882,126.616 C91.0692796,126.616 93.0578753,125.421509 93.0578753,122.634365 C93.0578753,119.249975 91.0692796,118.254566 87.0920882,118.254566 L8.35210185,118.254566 C8.35210185,73.2620881 88.0947886,70.4749434 88.0947886,35.0383899 Z" id="Path"></path>
                <path d="M92.4138106,35.0383899 C92.4138106,4.77796226 87.4061651,0 62.7475787,0 L31.7389072,0 C18.2164566,0 12.8472483,5.97245283 12.8472483,21.3017484 C12.8472483,25.2833836 14.0404057,27.2742013 16.8244396,27.2742013 C20.2050523,27.2742013 21.1993501,25.2833836 21.1993501,21.3017484 C21.1993501,12.1439874 23.9833841,8.36143396 33.1309242,8.36143396 L62.7475787,8.36143396 C84.8209907,8.36143396 84.0617087,10.5513333 84.0617087,35.0383899 C84.0617087,66.8914717 4.319022,67.488717 4.319022,117.856403 L4.319022,126.616 L91.4111102,126.616 C95.3883016,126.616 97.3768973,125.421509 97.3768973,122.634365 C97.3768973,119.249975 95.3883016,118.254566 91.4111102,118.254566 L12.6711239,118.254566 C12.6711239,73.2620881 92.4138106,70.4749434 92.4138106,35.0383899 Z" id="Path-Copy" transform="translate(50.847960, 63.308000) scale(-1, 1) translate(-50.847960, -63.308000) "></path>
            </g>
            <g id="Gravity-Sensation" transform="translate(115.013550, 14.782032)">
                <path d="M15.0561107,42.317968 L8.46528312,42.317968 C5.84507644,42.317968 3.77914425,41.5533067 2.26748655,40.023984 C0.75582885,38.4946613 0,36.401904 0,33.745712 L0,12.0736 C0,9.417408 0.75582885,7.32465067 2.26748655,5.795328 C3.77914425,4.26600533 5.84507644,3.501344 8.46528312,3.501344 L15.0561107,3.501344 C17.6763174,3.501344 19.7523273,4.26600533 21.2841404,5.795328 C22.8159535,7.32465067 23.5818601,9.417408 23.5818601,12.0736 L23.5818601,14.79016 C23.5818601,15.273104 23.3601503,15.514576 22.9167307,15.514576 L21.1632078,15.514576 C20.7197882,15.514576 20.4980784,15.273104 20.4980784,14.79016 L20.4980784,12.194336 C20.4980784,10.26256 20.0143479,8.783544 19.046887,7.757288 C18.0794261,6.731032 16.6685456,6.217904 14.8142455,6.217904 L8.70714835,6.217904 C6.85284824,6.217904 5.44196772,6.74109333 4.47450679,7.787472 C3.50704586,8.83385067 3.0233154,10.3028053 3.0233154,12.194336 L3.0233154,33.624976 C3.0233154,35.5165067 3.50704586,36.9854613 4.47450679,38.03184 C5.44196772,39.0782187 6.85284824,39.601408 8.70714835,39.601408 L14.8142455,39.601408 C16.6685456,39.601408 18.0794261,39.08828 19.046887,38.062024 C20.0143479,37.035768 20.4980784,35.556752 20.4980784,33.624976 L20.4980784,25.6564 C20.4980784,25.294192 20.3166795,25.113088 19.9538816,25.113088 L13.0002562,25.113088 C12.5568366,25.113088 12.3351268,24.8917387 12.3351268,24.44904 L12.3351268,23.060576 C12.3351268,22.6178773 12.5568366,22.396528 13.0002562,22.396528 L22.4330003,22.396528 C23.1989068,22.396528 23.5818601,22.7989813 23.5818601,23.603888 L23.5818601,33.745712 C23.5818601,36.401904 22.8159535,38.4946613 21.2841404,40.023984 C19.7523273,41.5533067 17.6763174,42.317968 15.0561107,42.317968 Z" id="Path" fill="#FFFFFF"></path>
                <path d="M34.949526,42.317968 L33.1960031,42.317968 C32.7928944,42.317968 32.59134,42.076496 32.59134,41.593552 L32.59134,12.254704 C32.59134,11.77176 32.7928944,11.530288 33.1960031,11.530288 L34.949526,11.530288 C35.3929456,11.530288 35.6146554,11.77176 35.6146554,12.254704 L35.6146554,14.79016 L35.8565206,14.79016 C36.2999402,13.945008 37.0860022,13.190408 38.2147066,12.52636 C39.3434111,11.862312 40.7341361,11.530288 42.3868819,11.530288 L44.7450679,11.530288 C45.1884875,11.530288 45.4101973,11.7516373 45.4101973,12.194336 L45.4101973,13.643168 C45.4101973,14.0858667 45.1884875,14.2870933 44.7450679,14.246848 L41.9031514,14.246848 C39.9279187,14.246848 38.3860278,14.850528 37.2774789,16.057888 C36.1689299,17.265248 35.6146554,18.895184 35.6146554,20.947696 L35.6146554,41.593552 C35.6146554,42.076496 35.3929456,42.317968 34.949526,42.317968 Z" id="Path" fill="#FFFFFF"></path>
                <path d="M63.2477581,42.317968 L59.3779144,42.317968 C56.7577077,42.317968 54.6917756,41.5533067 53.1801179,40.023984 C51.6684602,38.4946613 50.9126313,36.401904 50.9126313,33.745712 L50.9126313,20.102544 C50.9126313,17.446352 51.6684602,15.3535947 53.1801179,13.824272 C54.6917756,12.2949493 56.7577077,11.530288 59.3779144,11.530288 L72.1967717,11.530288 C72.5998804,11.530288 72.8014348,11.77176 72.8014348,12.254704 L72.8014348,41.593552 C72.8014348,42.076496 72.5998804,42.317968 72.1967717,42.317968 L70.4432488,42.317968 C69.9998292,42.317968 69.7781194,42.076496 69.7781194,41.593552 L69.7781194,39.178832 L69.5362542,39.178832 C68.4881715,41.2715893 66.3920061,42.317968 63.2477581,42.317968 Z M69.7781194,33.685344 L69.7781194,14.79016 C69.7781194,14.427952 69.576565,14.246848 69.1734563,14.246848 L59.6197797,14.246848 C57.7654795,14.246848 56.354599,14.7700373 55.3871381,15.816416 C54.4196772,16.8627947 53.9359467,18.3317493 53.9359467,20.22328 L53.9359467,33.624976 C53.9359467,35.5165067 54.4196772,36.9854613 55.3871381,38.03184 C56.354599,39.0782187 57.7654795,39.601408 59.6197797,39.601408 L63.5500897,39.601408 C65.4850115,39.601408 67.0067469,39.08828 68.1152959,38.062024 C69.2238449,37.035768 69.7781194,35.5768747 69.7781194,33.685344 Z" id="Shape" fill="#FFFFFF"></path>
                <path d="M79.0294645,11.530288 L80.9039201,11.530288 C81.3070288,11.530288 81.5690494,11.77176 81.6899821,12.254704 L89.7924673,38.93736 L90.0343326,38.93736 L98.0763515,12.254704 C98.237595,11.77176 98.4996157,11.530288 98.8624135,11.530288 L100.797335,11.530288 C101.240755,11.530288 101.381843,11.77176 101.2206,12.254704 L92.090187,41.593552 C91.9692544,42.076496 91.6870783,42.317968 91.2436587,42.317968 L88.5831412,42.317968 C88.1397216,42.317968 87.83739,42.076496 87.6761466,41.593552 L78.5457341,12.254704 C78.4248014,11.77176 78.5860449,11.530288 79.0294645,11.530288 Z" id="Path" fill="#FFFFFF"></path>
                <path d="M107.327697,6.459376 L107.327697,0.664048 C107.327697,0.221349333 107.529251,0 107.93236,0 L109.746349,0 C110.149458,0 110.351012,0.221349333 110.351012,0.664048 L110.351012,6.459376 C110.351012,6.94232 110.149458,7.183792 109.746349,7.183792 L107.93236,7.183792 C107.529251,7.183792 107.327697,6.94232 107.327697,6.459376 Z M107.327697,41.593552 L107.327697,12.254704 C107.327697,11.77176 107.529251,11.530288 107.93236,11.530288 L109.685883,11.530288 C110.129302,11.530288 110.351012,11.77176 110.351012,12.254704 L110.351012,41.593552 C110.351012,42.076496 110.149458,42.317968 109.746349,42.317968 L107.93236,42.317968 C107.529251,42.317968 107.327697,42.076496 107.327697,41.593552 Z" id="Shape" fill="#FFFFFF"></path>
                <path d="M121.053549,14.246848 L117.365104,14.246848 C116.921684,14.246848 116.699974,14.0456213 116.699974,13.643168 L116.699974,12.194336 C116.699974,11.7516373 116.921684,11.530288 117.365104,11.530288 L121.053549,11.530288 C121.416346,11.530288 121.597745,11.349184 121.597745,10.986976 L121.597745,6.097168 C121.597745,5.614224 121.819455,5.372752 122.262875,5.372752 L124.016398,5.372752 C124.459817,5.372752 124.681527,5.614224 124.681527,6.097168 L124.681527,10.986976 C124.681527,11.349184 124.862926,11.530288 125.225724,11.530288 L132.421214,11.530288 C132.864634,11.530288 133.086344,11.7516373 133.086344,12.194336 L133.086344,13.643168 C133.086344,14.0456213 132.864634,14.246848 132.421214,14.246848 L125.225724,14.246848 C124.862926,14.246848 124.681527,14.427952 124.681527,14.79016 L124.681527,33.80608 C124.681527,35.6573653 125.205568,37.0860747 126.253651,38.092208 C127.301734,39.0983413 128.773081,39.601408 130.667692,39.601408 L133.025878,39.601408 C133.469297,39.601408 133.691007,39.8227573 133.691007,40.265456 L133.691007,41.65392 C133.691007,42.0966187 133.469297,42.317968 133.025878,42.317968 L130.425826,42.317968 C127.765309,42.317968 125.628833,41.5734293 124.016398,40.084352 C122.403963,38.5952747 121.597745,36.5427627 121.597745,33.926816 L121.597745,14.79016 C121.597745,14.427952 121.416346,14.246848 121.053549,14.246848 Z" id="Path" fill="#FFFFFF"></path>
                <path d="M142.15629,51.493904 L139.919037,51.493904 C139.475617,51.493904 139.253907,51.2725547 139.253907,50.829856 L139.253907,49.381024 C139.253907,48.9383253 139.475617,48.716976 139.919037,48.716976 L141.551627,48.716976 C142.760953,48.716976 143.78888,48.5459333 144.635409,48.203848 C145.481937,47.8617627 146.227688,47.2278987 146.872662,46.302256 C147.517636,45.3766133 147.9409,44.6521973 148.142455,44.129008 C148.706807,42.8814027 149.170382,41.7344107 149.53318,40.688032 L148.38432,40.688032 C147.9409,40.688032 147.658724,40.44656 147.537791,39.963616 L137.923648,12.254704 C137.762405,11.77176 137.923648,11.530288 138.407379,11.530288 L140.281834,11.530288 C140.684943,11.530288 140.946964,11.77176 141.067896,12.254704 L149.956444,38.152576 L150.198309,38.152576 L159.086856,12.254704 C159.207789,11.77176 159.46981,11.530288 159.872918,11.530288 L161.686908,11.530288 C162.170638,11.530288 162.352037,11.77176 162.231104,12.254704 C155.015458,33.3432587 151.256469,44.249744 150.954138,44.97416 C150.651806,45.698576 150.097532,46.6845867 149.291314,47.932192 C147.759501,50.3066667 145.38116,51.493904 142.15629,51.493904 Z" id="Path" fill="#FFFFFF"></path>
                <path d="M0.027158596,87.645712 L0.027158596,85.472464 C0.027158596,85.0297653 0.248868392,84.808416 0.692287984,84.808416 L2.44581091,84.808416 C2.88923051,84.808416 3.1109403,85.0297653 3.1109403,85.472464 L3.1109403,87.464608 C3.1109403,91.4891413 5.06601759,93.501408 8.97617218,93.501408 L15.2646682,93.501408 C19.1748228,93.501408 21.1299001,91.4690187 21.1299001,87.40424 L21.1299001,84.868784 C21.1299001,83.0979893 20.4043044,81.7095253 18.953113,80.703392 C17.5019216,79.6972587 15.7483987,78.9728427 13.6925442,78.530144 C11.6366897,78.0874453 9.57075754,77.624624 7.49474763,77.14168 C5.41873772,76.658736 3.65513707,75.7733387 2.20394568,74.485488 C0.752754292,73.1976373 0.027158596,71.467088 0.027158596,69.29384 L0.027158596,65.9736 C0.027158596,63.317408 0.793065164,61.2246507 2.3248783,59.695328 C3.85669143,58.1660053 5.93270134,57.401344 8.55290802,57.401344 L15.5669997,57.401344 C18.1872064,57.401344 20.2632163,58.1660053 21.7950295,59.695328 C23.3268426,61.2246507 24.0927492,63.317408 24.0927492,65.9736 L24.0927492,67.663904 C24.0927492,68.1066027 23.8710394,68.327952 23.4276198,68.327952 L21.6740968,68.327952 C21.2306773,68.327952 21.0089675,68.1066027 21.0089675,67.663904 L21.0089675,66.154704 C21.0089675,62.1301707 19.0538902,60.117904 15.1437356,60.117904 L8.91570587,60.117904 C5.04586216,60.117904 3.1109403,62.170416 3.1109403,66.27544 L3.1109403,69.29384 C3.1109403,72.070768 5.59005893,73.942176 10.5482962,74.908064 C12.6041507,75.3105173 14.6700828,75.7733387 16.7460927,76.296528 C18.8221027,76.8197173 20.5857033,77.7654827 22.0368947,79.133824 C23.4880861,80.5021653 24.2136818,82.3534507 24.2136818,84.68768 L24.2136818,87.645712 C24.2136818,90.301904 23.4477752,92.3946613 21.9159621,93.923984 C20.3841489,95.4533067 18.308139,96.217968 15.6879324,96.217968 L8.55290802,96.217968 C5.93270134,96.217968 3.85669143,95.4533067 2.3248783,93.923984 C0.793065164,92.3946613 0.027158596,90.301904 0.027158596,87.645712 Z" id="Path" fill="#669CC4"></path>
                <path d="M54.1445042,96.217968 L41.5070459,96.217968 C38.8868392,96.217968 36.820907,95.4533067 35.3092493,93.923984 C33.7975916,92.3946613 33.0417627,90.301904 33.0417627,87.645712 L33.0417627,74.002544 C33.0417627,71.346352 33.7975916,69.2535947 35.3092493,67.724272 C36.820907,66.1949493 38.8868392,65.430288 41.5070459,65.430288 L46.7071483,65.430288 C49.327355,65.430288 51.4033649,66.1949493 52.9351781,67.724272 C54.4669912,69.2535947 55.2328978,71.346352 55.2328978,74.002544 L55.2328978,81.66928 C55.2328978,82.152224 54.9910325,82.393696 54.5073021,82.393696 L36.6092749,82.393696 C36.2464771,82.393696 36.0650781,82.5748 36.0650781,82.937008 L36.0650781,87.585344 C36.0650781,89.4768747 36.5488086,90.935768 37.5162695,91.962024 C38.4837305,92.98828 39.894611,93.501408 41.7489111,93.501408 L54.1445042,93.501408 C54.5879238,93.501408 54.8096336,93.7227573 54.8096336,94.165456 L54.8096336,95.55392 C54.8096336,95.9966187 54.5879238,96.217968 54.1445042,96.217968 Z M36.6092749,79.978976 L51.6653856,79.978976 C52.0281834,79.978976 52.2095824,79.797872 52.2095824,79.435664 L52.2095824,74.062912 C52.2095824,72.1713813 51.7258519,70.712488 50.758391,69.686232 C49.7909301,68.659976 48.3800495,68.146848 46.5257494,68.146848 L41.7489111,68.146848 C39.894611,68.146848 38.4837305,68.659976 37.5162695,69.686232 C36.5488086,70.712488 36.0650781,72.1713813 36.0650781,74.062912 L36.0650781,79.435664 C36.0650781,79.797872 36.2464771,79.978976 36.6092749,79.978976 Z" id="Shape" fill="#669CC4"></path>
                <path d="M65.7540354,96.217968 L64.0005124,96.217968 C63.5974037,96.217968 63.3958493,95.976496 63.3958493,95.493552 L63.3958493,66.154704 C63.3958493,65.67176 63.5974037,65.430288 64.0005124,65.430288 L65.7540354,65.430288 C66.1974549,65.430288 66.4191647,65.67176 66.4191647,66.154704 L66.4191647,68.569424 L66.66103,68.569424 C67.7897344,66.4766667 69.8858997,65.430288 72.949526,65.430288 L76.9403023,65.430288 C79.5201981,65.430288 81.5558972,66.1949493 83.0473994,67.724272 C84.5389017,69.2535947 85.2846528,71.346352 85.2846528,74.002544 L85.2846528,95.493552 C85.2846528,95.976496 85.0830985,96.217968 84.6799898,96.217968 L82.9264668,96.217968 C82.4830472,96.217968 82.2613374,95.976496 82.2613374,95.493552 L82.2613374,74.12328 C82.2613374,72.2317493 81.777607,70.7627947 80.810146,69.716416 C79.8426851,68.6700373 78.4318046,68.146848 76.5775045,68.146848 L72.6471945,68.146848 C70.7122726,68.146848 69.1905372,68.659976 68.0819882,69.686232 C66.9734392,70.712488 66.4191647,72.1713813 66.4191647,74.062912 L66.4191647,95.493552 C66.4191647,95.976496 66.1974549,96.217968 65.7540354,96.217968 Z" id="Path" fill="#669CC4"></path>
                <path d="M104.029208,96.217968 L93.5080707,96.217968 C93.0646511,96.217968 92.8429413,95.9966187 92.8429413,95.55392 L92.8429413,94.165456 C92.8429413,93.7630027 93.0646511,93.561776 93.5080707,93.561776 L103.726877,93.561776 C107.354855,93.561776 109.168844,92.1531893 109.168844,89.336016 L109.168844,87.887184 C109.168844,85.2712373 108.04014,83.5608107 105.782731,82.755904 L98.2244427,79.85824 C96.1685883,79.0533333 94.7073192,78.107568 93.8406354,77.020944 C92.9739517,75.93432 92.5406098,74.42512 92.5406098,72.493344 C92.5406098,67.78464 95.140661,65.430288 100.340764,65.430288 L110.136305,65.430288 C110.579725,65.430288 110.801435,65.6516373 110.801435,66.094336 L110.801435,67.4828 C110.801435,67.8852533 110.579725,68.08648 110.136305,68.08648 L100.643095,68.08648 C98.9903493,68.08648 97.75079,68.448688 96.9244171,69.173104 C96.0980442,69.89752 95.6848578,70.742672 95.6848578,71.70856 L95.6848578,73.097024 C95.6848578,74.2238933 95.9972671,75.1092907 96.6220856,75.753216 C97.2469041,76.3971413 98.2042873,76.9404533 99.4942352,77.383152 L107.052524,80.401552 C109.148689,81.0857227 110.549492,82.1019173 111.254932,83.450136 C111.960372,84.7983547 112.313092,86.679824 112.313092,89.094544 C112.313092,91.509264 111.637885,93.3001813 110.287471,94.467296 C108.937057,95.6344107 106.850969,96.217968 104.029208,96.217968 Z" id="Path" fill="#669CC4"></path>
                <path d="M131.84371,96.217968 L127.973866,96.217968 C125.35366,96.217968 123.287727,95.4533067 121.77607,93.923984 C120.264412,92.3946613 119.508583,90.301904 119.508583,87.645712 L119.508583,74.002544 C119.508583,71.346352 120.264412,69.2535947 121.77607,67.724272 C123.287727,66.1949493 125.35366,65.430288 127.973866,65.430288 L140.792724,65.430288 C141.195832,65.430288 141.397387,65.67176 141.397387,66.154704 L141.397387,95.493552 C141.397387,95.976496 141.195832,96.217968 140.792724,96.217968 L139.039201,96.217968 C138.595781,96.217968 138.374071,95.976496 138.374071,95.493552 L138.374071,93.078832 L138.132206,93.078832 C137.084123,95.1715893 134.987958,96.217968 131.84371,96.217968 Z M138.374071,87.585344 L138.374071,68.69016 C138.374071,68.327952 138.172517,68.146848 137.769408,68.146848 L128.215731,68.146848 C126.361431,68.146848 124.950551,68.6700373 123.98309,69.716416 C123.015629,70.7627947 122.531899,72.2317493 122.531899,74.12328 L122.531899,87.524976 C122.531899,89.4165067 123.015629,90.8854613 123.98309,91.93184 C124.950551,92.9782187 126.361431,93.501408 128.215731,93.501408 L132.146042,93.501408 C134.080963,93.501408 135.602699,92.98828 136.711248,91.962024 C137.819797,90.935768 138.374071,89.4768747 138.374071,87.585344 Z" id="Shape" fill="#669CC4"></path>
                <path d="M151.797592,68.146848 L148.109147,68.146848 C147.665727,68.146848 147.444017,67.9456213 147.444017,67.543168 L147.444017,66.094336 C147.444017,65.6516373 147.665727,65.430288 148.109147,65.430288 L151.797592,65.430288 C152.160389,65.430288 152.341788,65.249184 152.341788,64.886976 L152.341788,59.997168 C152.341788,59.514224 152.563498,59.272752 153.006918,59.272752 L154.760441,59.272752 C155.20386,59.272752 155.42557,59.514224 155.42557,59.997168 L155.42557,64.886976 C155.42557,65.249184 155.606969,65.430288 155.969767,65.430288 L163.165257,65.430288 C163.608677,65.430288 163.830387,65.6516373 163.830387,66.094336 L163.830387,67.543168 C163.830387,67.9456213 163.608677,68.146848 163.165257,68.146848 L155.969767,68.146848 C155.606969,68.146848 155.42557,68.327952 155.42557,68.69016 L155.42557,87.70608 C155.42557,89.5573653 155.949611,90.9860747 156.997694,91.992208 C158.045777,92.9983413 159.517124,93.501408 161.411735,93.501408 L163.769921,93.501408 C164.21334,93.501408 164.43505,93.7227573 164.43505,94.165456 L164.43505,95.55392 C164.43505,95.9966187 164.21334,96.217968 163.769921,96.217968 L161.169869,96.217968 C158.509352,96.217968 156.372876,95.4734293 154.760441,93.984352 C153.148006,92.4952747 152.341788,90.4427627 152.341788,87.826816 L152.341788,68.69016 C152.341788,68.327952 152.160389,68.146848 151.797592,68.146848 Z" id="Path" fill="#669CC4"></path>
                <path d="M171.751473,60.359376 L171.751473,54.564048 C171.751473,54.1213493 171.953028,53.9 172.356136,53.9 L174.170126,53.9 C174.573234,53.9 174.774789,54.1213493 174.774789,54.564048 L174.774789,60.359376 C174.774789,60.84232 174.573234,61.083792 174.170126,61.083792 L172.356136,61.083792 C171.953028,61.083792 171.751473,60.84232 171.751473,60.359376 Z M171.751473,95.493552 L171.751473,66.154704 C171.751473,65.67176 171.953028,65.430288 172.356136,65.430288 L174.109659,65.430288 C174.553079,65.430288 174.774789,65.67176 174.774789,66.154704 L174.774789,95.493552 C174.774789,95.976496 174.573234,96.217968 174.170126,96.217968 L172.356136,96.217968 C171.953028,96.217968 171.751473,95.976496 171.751473,95.493552 Z" id="Shape" fill="#669CC4"></path>
                <path d="M197.207789,96.217968 L192.007686,96.217968 C189.38748,96.217968 187.321548,95.4533067 185.80989,93.923984 C184.298232,92.3946613 183.542403,90.301904 183.542403,87.645712 L183.542403,74.002544 C183.542403,71.346352 184.298232,69.2535947 185.80989,67.724272 C187.321548,66.1949493 189.38748,65.430288 192.007686,65.430288 L197.207789,65.430288 C199.827996,65.430288 201.904005,66.1949493 203.435819,67.724272 C204.967632,69.2535947 205.733538,71.346352 205.733538,74.002544 L205.733538,87.645712 C205.733538,90.301904 204.967632,92.3946613 203.435819,93.923984 C201.904005,95.4533067 199.827996,96.217968 197.207789,96.217968 Z M192.249552,93.501408 L196.965924,93.501408 C198.820224,93.501408 200.241182,92.98828 201.228798,91.962024 C202.216415,90.935768 202.710223,89.4768747 202.710223,87.585344 L202.710223,74.062912 C202.710223,72.1713813 202.216415,70.712488 201.228798,69.686232 C200.241182,68.659976 198.820224,68.146848 196.965924,68.146848 L192.249552,68.146848 C190.395252,68.146848 188.984371,68.659976 188.01691,69.686232 C187.049449,70.712488 186.565719,72.1713813 186.565719,74.062912 L186.565719,87.585344 C186.565719,89.4768747 187.049449,90.935768 188.01691,91.962024 C188.984371,92.98828 190.395252,93.501408 192.249552,93.501408 Z" id="Shape" fill="#669CC4"></path>
                <path d="M216.496541,96.217968 L214.743018,96.217968 C214.339909,96.217968 214.138355,95.976496 214.138355,95.493552 L214.138355,66.154704 C214.138355,65.67176 214.339909,65.430288 214.743018,65.430288 L216.496541,65.430288 C216.939961,65.430288 217.161671,65.67176 217.161671,66.154704 L217.161671,68.569424 L217.403536,68.569424 C218.53224,66.4766667 220.628406,65.430288 223.692032,65.430288 L227.682808,65.430288 C230.262704,65.430288 232.298403,66.1949493 233.789905,67.724272 C235.281407,69.2535947 236.027159,71.346352 236.027159,74.002544 L236.027159,95.493552 C236.027159,95.976496 235.825604,96.217968 235.422496,96.217968 L233.668973,96.217968 C233.225553,96.217968 233.003843,95.976496 233.003843,95.493552 L233.003843,74.12328 C233.003843,72.2317493 232.520113,70.7627947 231.552652,69.716416 C230.585191,68.6700373 229.17431,68.146848 227.32001,68.146848 L223.3897,68.146848 C221.454778,68.146848 219.933043,68.659976 218.824494,69.686232 C217.715945,70.712488 217.161671,72.1713813 217.161671,74.062912 L217.161671,95.493552 C217.161671,95.976496 216.939961,96.217968 216.496541,96.217968 Z" id="Path" fill="#669CC4"></path>
            </g>
        </g>
    </g>
</svg>